<svg width="315.31036" height="453.32974" xmlns:xlink="http://www.w3.org/1999/xlink" xmlns="http://www.w3.org/2000/svg"><defs><linearGradient id="a"><stop style="stop-color:#fff;stop-opacity:1" offset="0"/><stop style="stop-color:#fff;stop-opacity:0" offset="1"/></linearGradient><linearGradient xlink:href="#a" id="b" x1="329.84" y1="455.00247" x2="330.79187" y2="518.77185" gradientUnits="userSpaceOnUse" gradientTransform="matrix(1 0 0 1.21617 0 -57.826411)"/></defs><g transform="translate(-173.6706 -145.57753)"><circle style="fill:none;stroke:#fff;stroke-width:25;stroke-linecap:square;stroke-dasharray:none" cx="329.97464" cy="219.97464" r="47.525352"/><path style="opacity:1;fill:url(#b);fill-opacity:1;stroke:none;stroke-width:33.4124;stroke-linecap:square;stroke-dasharray:none" d="M317.47464 267.5h25v331.40729h-25z"/><path style="fill:none;stroke:#fff;stroke-width:25;stroke-linecap:square;stroke-dasharray:none" d="M206.42347 495.11669S246.95497 343.83146 320 330M455.14016 160.96985S413.17314 311.86317 340 325"/><path style="font-weight:700;font-size:21.3333px;font-family:Montserrat;-inkscape-font-specification:'Montserrat Bold';white-space:pre;fill:#fff;fill-opacity:1;stroke-width:25;stroke-linecap:square" d="m464.21009 458.99899-.46315-14.92591c.87692-.0283 1.75419-.0547 2.63178-.0793 2.80134 3.50829 5.56015 7.03974 8.27126 10.59265-.41891.006-.8378.0117-1.25667.0182l-.17107-10.76418c1.04969-.0175 2.09976-.0323 3.15016-.0442l.15899 14.95598c-.8511.008-1.70219.0188-2.55324.0308-2.70301-3.55068-5.45407-7.08011-8.24799-10.58657.42283-.0121.84573-.0238 1.26868-.035l.28092 10.75333c-1.02338.0256-2.04662.0537-3.06967.0842zm22.0331-.005c-1.06149-.008-2.04514-.20399-2.95379-.59043-.89576-.38639-1.67819-.92721-2.34801-1.62379-.65693-.69656-1.17559-1.51357-1.55487-2.45189-.36638-.93832-.55459-1.96303-.56185-3.07425-.007-1.11133.16761-2.13827.52745-3.08084.37284-.94258.8982-1.76463 1.5773-2.4651.67904-.70041 1.47905-1.24336 2.39933-1.62725.92022-.38388 1.92116-.57307 3.0001-.56613 1.09209.007 2.09087.20919 2.99335.60498.9157.39598 1.70249.94954 2.35948 1.65911.67017.70985 1.18462 1.53941 1.54456 2.48767.36025.93409.52709 1.96415.50367 3.09029-.0231 1.11174-.23267 2.14131-.62544 3.08883-.39251.93333-.92892 1.74312-1.60802 2.43029-.6661.67321-1.44908 1.19593-2.34975 1.56961-.88796.37387-1.85481.55639-2.90351.5489zm.00083-2.95066c.60438.004 1.15812-.10495 1.66219-.328.5169-.22291.97117-.54554 1.36317-.96833.39197-.42277.69572-.92476.91077-1.50626.22795-.58127.34774-1.22829.35822-1.94099.0105-.71276-.0903-1.3629-.30344-1.9505-.20013-.58738-.4932-1.09747-.87967-1.52995-.37339-.4323-.82074-.76529-1.34174-.99846-.52098-.23316-1.08952-.35197-1.70463-.35601-.61511-.004-1.18509.10729-1.70901.33352-.51086.22629-.96251.55322-1.35462.98036-.39213.42716-.69852.9331-.91958 1.51752-.20805.58444-.31123 1.2329-.31057 1.94547.00064.69826.10499 1.34661.31201 1.94507.21995.58422.51674 1.09024.89003 1.51831.3862.4281.83608.75697 1.34994.98702.51388.23007 1.07254.34701 1.67693.35123zm12.25764 2.92284.37163-12.14128c-1.46617-.0449-2.93236-.0834-4.39848-.11568l.0622-2.8222c4.01418.0882 8.02982.22332 12.04466.40895l-.12965 2.81944c-1.46573-.0676-2.93168-.12852-4.39775-.18285l-.44872 12.13812c-1.03433-.0381-2.06897-.0729-3.10388-.1045zm19.2716-14.01883c1.06533.075 2.13045.1539 3.19532.23661l-1.1506 14.91183c-1.02914-.0789-2.05884-.15406-3.08907-.22567zm-7.11696 14.54218c-1.03212-.0577-2.06468-.11203-3.09763-.16291l.74075-14.94814c1.06617.0531 2.13225.10988 3.19822.17028zm6.73293-5.72146c-2.20518-.1553-4.41213-.29418-6.62043-.41728l.16319-2.92423c2.22227.12418 4.44346.26433 6.66316.42106zm5.59059 6.58177 1.26146-14.89938c1.06433.0907 2.12837.18533 3.19208.28397l-1.37159 14.886c-1.02668-.094-2.05401-.18415-3.08195-.27059zm6.23595.57152 1.48641-14.87106c.87926.0884 1.75826.17963 2.63698.27366 2.32897 3.85574 4.58514 7.72837 6.76336 11.6162-.41379-.0524-.8277-.10407-1.24173-.15511l1.31846-10.67076c1.04729.13008 2.09409.26432 3.14036.40279l-1.94938 14.80137c-.83671-.10963-1.674-.21649-2.51184-.32059-2.16379-3.88022-4.40599-7.74544-6.72139-11.59395.42205.0442.84402.0891 1.2659.13462l-1.15126 10.69593c-1.01126-.10818-2.02323-.21253-3.03587-.3131zm21.60029 3.01816c-1.03765-.16372-1.96631-.49253-2.78957-.98922-.80857-.50884-1.49085-1.15378-2.04784-1.93708-.5443-.7814-.93688-1.6618-1.17584-2.64224-.22622-.97856-.26467-2.02438-.11114-3.13675.15356-1.11258.47395-2.10859.96535-2.98738.50425-.87687 1.14305-1.61219 1.91787-2.20418.77473-.59191 1.64673-1.00274 2.61413-1.23048.96947-.24179 2.00418-.27629 3.09962-.10193 1.21281.19303 2.26613.58977 3.15517 1.18585.9021.59831 1.61093 1.3696 2.12535 2.31035-.78906.55378-1.57464 1.11023-2.35677 1.6693-.39386-.64286-.86006-1.1457-1.3973-1.50773-.53488-.37603-1.1461-.61928-1.83177-.72856-.65979-.10516-1.27944-.087-1.85729.0539-.57791.14087-1.09887.39238-1.56231.75382-.45057.36341-.82746.81746-1.13117 1.36161-.29086.54611-.48709 1.17078-.59021 1.87389-.10104.68896-.0915 1.33679.0272 1.94316.13139.60829.35483 1.15853.66961 1.65106.32957.4804.73576.87231 1.21891 1.17648.49582.30613 1.05814.50862 1.6883.60851.60497.0959 1.20744.0851 1.80898-.0323.61643-.1294 1.23895-.40745 1.86951-.83399.44248.91726.88058 1.83517 1.31424 2.75371-.8187.47758-1.72864.79752-2.73206.96199-.99093.16655-1.95326.17625-2.89093.0283zm2.913-1.90355.91675-5.528c.9444.15664 1.88808.31703 2.83101.48123l-1.03777 5.96003c-.9013-.30791-1.80465-.61232-2.70999-.91326zm13.19464 4.57893 2.46149-11.83919c-1.43615-.29883-2.87412-.58836-4.31382-.86877l.53674-2.75898c3.95233.77035 7.89277 1.60886 11.81907 2.51911l-.63449 2.7372c-1.42951-.33139-2.86105-.65319-4.29449-.96555l-2.57321 11.81428c-.99919-.21744-1.99963-.43012-3.00129-.6381zm14.73633 3.69465c-1.01209-.26233-1.90468-.68596-2.68201-1.2743-.76504-.58527-1.38653-1.29175-1.86539-2.12232-.46645-.82749-.77393-1.73903-.92016-2.73568-.13376-.99359-.077-2.02977.17503-3.10746.25212-1.07789.66093-2.03146 1.23126-2.85947.58293-.82491 1.28722-1.49654 2.11446-2.01266.82712-.51605 1.73667-.84956 2.7265-.99829.98979-.14872 2.01284-.0878 3.06386.1839 1.06383.27501 1.98858.71775 2.76994 1.32445.79424.61022 1.42213 1.3415 1.8829 2.19089.47353.85304.76369 1.7825.87295 2.78724.11313.99125.0134 2.02561-.29397 3.10455-.30341 1.06504-.76564 2.00385-1.38133 2.81801-.61192.80059-1.32935 1.44668-2.15067 1.94043-.80546.48355-1.68329.79434-2.63577.93462-.94033.14357-1.9077.0853-2.9076-.17391zm.71783-2.8489c.57871.14989 1.13621.17881 1.67436.0864.55041-.0892 1.0656-.28919 1.54634-.60065.48069-.31143.89694-.72054 1.24808-1.22805.36348-.50407.63984-1.0982.82712-1.78277.18731-.68468.25176-1.33658.19145-1.9563-.0478-.61623-.20507-1.18106-.47286-1.69415-.25514-.50965-.6072-.94173-1.05588-1.29529-.44866-.35353-.97214-.60803-1.56896-.76239-.59683-.15435-1.17799-.18553-1.74167-.0939-.55104.0949-1.06836.30193-1.55123.62066-.48291.31875-.90072.73467-1.254 1.24709-.34068.51558-.59438 1.11818-.76286 1.8075-.1651.67543-.21807 1.32725-.16069 1.95499.0732.61706.23863 1.1767.49548 1.67919.26928.5056.62278.93054 1.06083 1.27567.4381.34515.94579.59211 1.52449.742zm17.70521 8.28172c-1.00397-.33372-1.91888-.79622-2.74894-1.39027-.82576-.60759-1.44795-1.24159-1.86527-1.90701.58917-.72459 1.18122-1.44774 1.77615-2.16945.4127.60643.94316 1.16979 1.59121 1.69237.66452.51295 1.37541.89509 2.13599 1.14753.0925.0307.18266.059.27036.0847.46109.1354.85511.20215 1.18314.19938.40687-.0127.73365-.10426.9805-.2756.24684-.17133.42117-.40484.52238-.70102.1288-.37695.0969-.7188-.0971-1.02525-.18938-.31987-.48077-.62144-.87441-.90356-.205-.15573-.42512-.31201-.66037-.46872-.21133-.14076-.43488-.28189-.67062-.42328-.48159-.3083-.96162-.64429-1.44067-1.00802-.46676-.35976-.87466-.75855-1.22402-1.1972-.34932-.4386-.59038-.94616-.72286-1.52344-.12007-.57323-.0632-1.24024.17293-1.99999.25304-.81417.68281-1.49191 1.29328-2.03075.62723-.54844 1.41421-.89014 2.36083-1.0208.92325-.1343 1.9817-.0168 3.16823.35754.0514.0162.10304.0329.15492.0501.83408.27638 1.61872.66078 2.35094 1.152.73686.47778 1.33929 1.03422 1.80615 1.66627-.60413.71514-1.20526 1.43194-1.80343 2.15035-.47698-.58787-.99247-1.07352-1.54417-1.45623-.54712-.39619-1.11575-.69196-1.70373-.88702-.0454-.0151-.0903-.0294-.13468-.0432-.53055-.16391-.99198-.23314-1.38297-.2088-.42378.0264-.75624.13564-.99734.32668-.23679.17754-.40506.42207-.50545.73325-.11786.3653-.077.70695.12149 1.02526.20285.30483.50489.59733.9059.87862.24125.16924.49776.3439.76957.52422.18007.11945.36679.24135.56019.36579.49772.31645.98114.65256 1.44991 1.00813.48107.35978.89053.76472 1.22798 1.21377.33751.44911.55443.96289.65125 1.54048.10903.58209.0311 1.24137-.23093 1.97907-.28104.79116-.7371 1.44459-1.36328 1.96287-.62637.51841-1.40187.84162-2.32673.97397-.83975.12551-1.79458.0235-2.87095-.30216-.0942-.0285-.1893-.0587-.28535-.0907zm13.13964-5.07943c2.05408.77725 4.09805 1.58282 6.12987 2.41837l-1.02286 2.48782c-2.00757-.82528-4.02797-1.62142-6.05914-2.39007zm-1.96251 5.83219c2.26213.85863 4.50929 1.7511 6.73852 2.67977l-1.06787 2.56144c-3.13062-1.30358-6.29933-2.53614-9.49762-3.70451l5.12305-14.03913c3.31611 1.20884 6.61327 2.49035 9.88359 3.85085l-1.06495 2.56269c-2.24748-.93462-4.50879-1.83204-6.78126-2.69439zm14.0958-.83956c2.00574.89658 3.99731 1.82476 5.97266 2.78619l-1.17576 2.41641c-1.94841-.94779-3.91371-1.86319-5.89386-2.74782zm-2.29939 5.7039c2.20022.98516 4.38026 2.00834 6.53716 3.0719l-1.227 2.48606c-3.02327-1.48993-6.09517-2.90036-9.20718-4.23814l5.90787-13.72293c3.25533 1.40338 6.48169 2.88747 9.67115 4.45862l-1.22375 2.48771c-2.18822-1.07739-4.39511-2.11368-6.61802-3.111zm27.68787.91548c.89981.5587 1.7952 1.12599 2.68596 1.70202.0309.0199.0618.0399.0928.0598L645.39 496.56197l-.084-.0549c-.80981-.52664-1.62505-1.04555-2.44552-1.55689zm-12.94613 9.6517c-.87-.49794-1.74515-.98813-2.62521-1.47075l7.17722-13.08221c.95702.52524 1.90998 1.05913 2.85866 1.60185zm8.49058-2.05131c-1.86155-1.162-3.74652-2.28584-5.65279-3.37325l1.44696-2.53666c1.93872 1.10584 3.85691 2.24906 5.75242 3.43138zm9.07451 2.67445c1.80065 1.27568 3.57357 2.59385 5.31238 3.95625l-1.66011 2.11945c-1.70365-1.33405-3.44211-2.62651-5.20901-3.8791zm-3.37427 5.15159c1.94617 1.3855 3.85453 2.81774 5.71586 4.29919l-1.73097 2.17194c-2.58913-2.059-5.27533-4.02539-8.03205-5.90636l8.40222-12.365c2.97942 2.01701 5.90139 4.15131 8.74122 6.40959l-1.72674 2.17541c-1.93571-1.53829-3.91204-3.01982-5.92069-4.44682zm5.81672 7.95714 9.54822-11.50228c1.60032 1.33189 3.17151 2.70505 4.70893 4.12072.95408.87852 1.61344 1.81344 1.97586 2.78125.37242.95792.44351 1.90472.2205 2.8306-.22326.92694-.74284 1.77644-1.54566 2.561-.79193.77391-1.6481 1.2704-2.5563 1.50287-.89908.22273-1.80147.18458-2.71351-.10695-.913-.29183-1.79418-.83577-2.66478-1.63372-.98646-.90413-1.99075-1.79146-3.01124-2.66241.67321-.0897 1.34895-.17355 2.0272-.25141l-3.73881 4.27197c-.74043-.64577-1.4908-1.28292-2.25041-1.91164zm6.03594 5.37589c.4931-2.02966.93356-4.0888 1.32342-6.17339.81458.73864 1.61766 1.48865 2.40837 2.25026-.44363 2.07858-.94025 4.12895-1.49196 6.14698-.73296-.75189-1.47987-1.4931-2.23983-2.22385zm-.29972-7.44714c.0116-.70805.0166-1.41852.015-2.13119.99989.85437 1.98518 1.72474 2.95445 2.6115.71244.6518 1.3908.98035 2.05199.98117.66967-.009 1.28855-.30101 1.85061-.88404.57217-.59352.8402-1.2237.79468-1.89617-.0454-.67103-.4387-1.35737-1.18371-2.04049-1.01286-.92873-2.04124-1.83921-3.08371-2.73182.72393-.1015 1.45085-.19651 2.18075-.2848zm12.44723 7.27391c1.45813 1.66035 2.8619 3.37041 4.20492 5.13192l-2.1374 1.62774c-1.30192-1.71127-2.6653-3.37373-4.08376-4.9891zm-4.46269 4.21356c1.54147 1.76442 3.01109 3.58478 4.39961 5.4636l-2.22645 1.65336c-1.9067-2.58797-3.9794-5.06465-6.19153-7.43724l10.91128-10.15943c2.49959 2.68773 4.87608 5.51053 7.10477 8.47509l-2.22151 1.65945c-1.50389-2.00496-3.08018-3.94454-4.72055-5.821-2.35187 2.05539-4.70375 4.11078-7.05562 6.16617z" aria-label="NOTHING TO SEE HERE" transform="rotate(-74.72 355.0194 661.7707)"/><path d="M491.35576 332.99498c-1.22302-.30396-2.30403-.77321-3.23599-1.40183-.91381-.63861-1.65608-1.40084-2.22476-2.28174-.55427-.87707-.90782-1.82753-1.0643-2.84901-.14217-1.01762-.0521-2.06499.26153-3.1441.31356-1.07874.79886-2.01171 1.44734-2.80135.66255-.78585 1.44644-1.41236 2.34935-1.88358.90315-.47135 1.88031-.75638 2.93581-.85864 1.05937-.11602 2.16253-.0292 3.31888.25844 1.28029.31842 2.38114.80688 3.30897 1.47407.94158.67031 1.6806 1.49053 2.21698 2.46687-.87686.50586-1.75883 1.00698-2.64614 1.50314-.4096-.67727-.89767-1.22145-1.46608-1.63411-.56521-.42655-1.2161-.73019-1.95566-.91344-.71166-.17633-1.38686-.23027-2.02891-.16082-.64203.0695-1.2334.25211-1.77575.54934-.52829.30089-.98829.69972-1.37919 1.19772-.37678.50171-.65994 1.09514-.8465 1.78092-.18288.67222-.23734 1.32026-.16049 1.94486.0912.62836.29594 1.21322.61573 1.75382.33782.53061.77616.98339 1.31428 1.35661.55256.3769 1.1939.65657 1.92152.83681.69851.17303 1.40133.23392 2.10574.18274.7223-.0615 1.45582-.27679 2.19743-.6459.48124.96361.96982 1.92599 1.46543 2.88712-.96823.41162-2.05109.64818-3.2452.70471-1.17936.06-2.32491-.048-3.43002-.32265zm3.52315-1.56036 1.28353-5.45733c1.05667.24853 2.11509.48977 3.17512.72405l-1.30658 5.91158c-1.05372-.38593-2.1045-.77861-3.15207-1.1783zm13.63271 5.20819c-1.232-.22153-2.34027-.62379-3.31873-1.20258-.96379-.57601-1.75977-1.28474-2.38615-2.12201-.61182-.83446-1.03139-1.75598-1.2615-2.76252-.2156-1.00367-.20531-2.04731.0239-3.13211.22918-1.08453.64185-2.04347 1.2312-2.87852.60366-.83224 1.34181-1.51438 2.21251-2.0494.87088-.53512 1.83281-.89586 2.88891-1.085 1.05628-.18917 2.1583-.17995 3.31316.0264 1.169.20886 2.20818.58212 3.12186 1.12438.92781.54461 1.7007 1.21711 2.319 2.02128.6325.80632 1.0876 1.70462 1.36247 2.69698.27699.97811.33387 2.02309.16512 3.13444-.16664 1.09739-.53237 2.08539-1.10261 2.96233-.56798.86273-1.28973 1.57863-2.16716 2.14457-.86028.55418-1.842.93508-2.9435 1.13907-1.08653.20646-2.24138.20156-3.45851-.0173zm.49729-2.90156c.69082.12412 1.34315.12322 1.95488-.002.62645-.12253 1.19521-.35784 1.70542-.70493.51025-.34711.92901-.78977 1.25704-1.32694.34267-.53485.57018-1.15354.68466-1.85563.11447-.70201.0954-1.36102-.0552-1.97671-.13611-.6134-.38447-1.16616-.74398-1.65895-.34522-.49043-.78374-.89632-1.31583-1.21892-.53213-.32263-1.13172-.54304-1.80047-.66269-.66873-.11964-1.30714-.12072-1.91755-.003-.59613.12061-1.14755.34906-1.65531.68608-.5077.33698-.93951.76722-1.29475 1.29163-.34089.52714-.5812 1.13918-.7186 1.83651-.13467.6835-.14438 1.3408-.0267 1.97236.13488.62038.37353 1.18102.71679 1.68134.35782.50307.80962.92181 1.35476 1.25493.54509.33308 1.16402.56238 1.85484.6865zm18.31527 5.73316c-1.23338-.15361-2.35394-.49235-3.35716-1.01364-.98845-.51936-1.81937-1.17975-2.49117-1.97831-.65711-.7966-1.13017-1.6914-1.42102-2.68285-.2762-.98944-.33115-2.03304-.16991-3.13142.1612-1.09816.51365-2.08222 1.05234-2.95309.5532-.86887 1.25187-1.59549 2.09456-2.18175.84282-.58636 1.78945-1.00255 2.8421-1.25051 1.05278-.24799 2.16427-.29825 3.33943-.15182 1.18954.14822 2.25661.46985 3.20449.96793.96214.4997 1.77309 1.13609 2.43306 1.91156.67437.77702 1.17285 1.65448 1.49363 2.63386.32227.96512.4256 2.00656.30643 3.12436-.11767 1.1037-.43912 2.10711-.9678 3.0092-.52714.88792-1.21282 1.63683-2.0585 2.24464-.82925.59525-1.78575 1.0245-2.86872 1.285-1.06806.26222-2.21327.3186-3.43176.16684zm.34209-2.92681c.69366.0864 1.34235.0508 1.94467-.10626.61712-.15527 1.17141-.41961 1.66244-.79225.49104-.37264.88689-.83579 1.18806-1.38869.31588-.55128.51334-1.18059.59381-1.88772.0805-.70709.0295-1.36473-.1514-1.97283-.16639-.60648-.44266-1.14696-.8281-1.62193-.37097-.47329-.83194-.85736-1.38308-1.15302-.55118-.29567-1.16532-.48532-1.84362-.56983-.67831-.0845-1.31983-.0513-1.92617.1-.59187.15317-1.13238.41229-1.62227.7779-.48984.36559-.89753.82048-1.22256 1.36527-.31051.5467-.51482 1.17251-.61126 1.87758-.0945.69106-.0657 1.34862.0882 1.97292.17044.61215.44047 1.15852.81062 1.6387.38483.4821.85783.87468 1.41847 1.17687.5606.30215 1.18847.49688 1.88215.58331zm10.90458 3.93029 1.51206-14.86096c.73516.0754 1.4707.1496 2.2066.22253 1.5586.15295 3.11818.29896 4.67869.43828 1.64605.14696 3.0707.58078 4.27978 1.30697 1.20998.71186 2.12987 1.64587 2.7588 2.80622.62875 1.16002.89015 2.49855.77745 4.0159-.11165 1.50337-.56826 2.78851-1.37645 3.85395-.80689 1.05098-1.87996 1.83815-3.21951 2.35711-1.33812.50468-2.85595.68393-4.54692.53319-1.60302-.1429-3.20583-.29266-4.80837-.44951-.75372-.0731-1.50778-.14758-2.26213-.22368zm3.86978-2.47143c1.09173.10422 2.18365.20515 3.27572.30288 1.03306.0924 1.94244-.0147 2.72569-.31934.79932-.31767 1.43315-.80776 1.90166-1.46865.48328-.65981.76132-1.45775.83664-2.39335.0765-.94968-.0702-1.78189-.43753-2.49663-.35163-.72786-.88994-1.30725-1.61455-1.73971-.70901-.44547-1.5704-.71255-2.58633-.80355-1.07401-.0962-2.14764-.19557-3.22089-.29816zm14.50614 4.04143 1.039-14.89591c2.4756.17261 4.95322.32978 7.43267.47243 1.91395.11012 3.33079.53966 4.25396 1.29863.93749.75952 1.38073 1.72039 1.32402 2.88536-.038.78132-.26838 1.4536-.69268 2.01646-.42353.54859-.98821.96172-1.69402 1.23834-.70573.27657-1.50707.39049-2.40243.34064.15564-.28333.3111-.56673.46638-.85017.96747.0532 1.81662.25449 2.54896.60521.73302.33649 1.29095.81239 1.67374 1.429.39743.61723.57649 1.35906.53529 2.22561-.0608 1.27848-.63242 2.25562-1.72088 2.92773-1.08743.6577-2.65766.93344-4.7057.81678-2.68619-.15301-5.37238-.32269-8.05831-.51011zm3.74989-2.35756c1.39661.0893 2.79336.17398 4.19021.25409.9312.0534 1.64149-.0503 2.12947-.30864.50364-.27184.77189-.72775.80574-1.36685.0331-.6249-.18561-1.09927-.65483-1.42369-.45384-.33789-1.14327-.53223-2.0692-.5853-1.47707-.0847-2.95389-.17444-4.43039-.26948l.16168-2.51197c1.26566.0814 2.53164.15901 3.7979.23279.86369.0503 1.5307-.0549 1.99998-.31388.48478-.27242.74273-.7072.77501-1.30364.0315-.58227-.17865-1.02794-.62923-1.33761-.43529-.32313-1.08203-.50873-1.94097-.55875-1.17192-.0683-2.34351-.13977-3.51474-.21461zm16.81846 3.46381.23546-6.09718c.2453.70693.49139 1.41374.73827 2.12042-2.13603-3.72382-4.2378-7.45689-6.30196-11.19915 1.24855.0588 2.49751.1142 3.74686.16622 1.59779 2.86376 3.21695 5.72217 4.85597 8.57522-.72793-.0251-1.45584-.0513-2.18371-.0785 1.84708-2.72763 3.67421-5.46241 5.48276-8.20369 1.15636.0351 2.313.0676 3.4699.0975-2.33518 3.58208-4.70078 7.15375-7.09987 10.71362.28985-.68727.57895-1.37472.86731-2.06234l-.20563 6.09838c-1.2017-.0406-2.40349-.084-3.60536-.1305zm14.51584-8.4983c2.4715.0497 4.94334.0883 7.41534.11663l-.0308 2.68787c-2.47943-.0283-4.95903-.067-7.43859-.11681zm.1425 6.1486c2.815.0556 5.62951.0969 8.44327.12501l-.0279 2.77318c-4.01494-.04-8.03226-.10666-12.05115-.20369l.36061-14.93046c3.84973.093 7.70226.15811 11.55684.19863l-.0288 2.7732c-2.68974-.0282-5.37887-.0683-8.06714-.12153z" style="font-weight:700;font-size:21.3333px;font-family:Montserrat;-inkscape-font-specification:'Montserrat Bold';white-space:pre;fill:#fff;stroke-width:25;stroke-linecap:square" aria-label="GOODBYE" transform="rotate(-74.805 422.68284 323.32173)"/></g></svg>